<?xml version="1.0" encoding="UTF-8" standalone="no"?>
<svg width="179px" height="108px" viewBox="0 0 179 108" version="1.1" xmlns="http://www.w3.org/2000/svg" xmlns:xlink="http://www.w3.org/1999/xlink">
    <!-- Generator: Sketch 3.8.3 (29802) - http://www.bohemiancoding.com/sketch -->
    <title>fmix-logo</title>
    <desc>Created with Sketch.</desc>
    <defs></defs>
    <g id="fmix-logo" stroke="none" stroke-width="1" fill="none" fill-rule="evenodd">
        <polygon id="Shape" fill="#030102" points="178.7 56.7 -1.42108547e-14 56.7 -1.42108547e-14 10 13.7 0 178.7 0"></polygon>
        <polygon id="Shape" fill="#030102" points="-1.42108547e-14 50.7 -1.42108547e-14 107.4 98.7 107.4 112.3 97.4 112.3 50.7"></polygon>
        <g id="Group" transform="translate(13.200000, 16.300000)" fill="#FFFFFF">
            <polygon id="Shape" points="0 24.9 0 0.7 14.8 0.7 14.8 4.7 4.8 4.7 4.8 10.6 13.5 10.6 13.5 14.6 4.8 14.6 4.8 24.9 0 24.9"></polygon>
            <path d="M25.4,0.4 C26.8,0.4 28,0.6 29.1,0.9 C30.2,1.2 31.2,1.7 32,2.3 C32.8,3 33.4,3.8 33.9,4.8 C34.3,5.8 34.5,7 34.5,8.3 C34.5,9.7 34.2,11 33.6,12.1 C33,13.2 32.1,14.1 30.8,14.7 C31.2,15.4 31.7,16.1 32.2,16.9 C32.7,17.7 33.2,18.6 33.6,19.5 C34.1,20.4 34.5,21.3 34.9,22.2 C35.3,23.1 35.7,23.9 36,24.8 L31,24.8 C30.4,23.2 29.7,21.7 28.9,20.3 C28.1,18.9 27.3,17.4 26.3,15.9 L24,15.9 L24,24.8 L19.2,24.8 L19.2,1 C19.7,0.9 20.2,0.8 20.7,0.7 C21.3,0.6 21.8,0.5 22.4,0.5 C23,0.5 23.5,0.4 24,0.4 C24.6,0.5 25,0.4 25.4,0.4 L25.4,0.4 Z M29.7,8.3 C29.7,7 29.3,6.1 28.5,5.5 C27.7,4.9 26.7,4.6 25.4,4.6 L24.7,4.6 C24.4,4.6 24.2,4.6 23.9,4.7 L23.9,12 L25,12 C26.6,12 27.8,11.7 28.5,11 C29.3,10.4 29.7,9.5 29.7,8.3 L29.7,8.3 Z" id="Shape"></path>
            <path d="M37.6,12.8 C37.6,8.6 38.4,5.5 39.9,3.4 C41.4,1.3 43.6,0.2 46.3,0.2 C49.1,0.2 51.3,1.3 52.8,3.4 C54.3,5.5 55,8.7 55,12.8 C55,17 54.2,20.1 52.7,22.2 C51.2,24.3 49.1,25.4 46.3,25.4 C43.5,25.4 41.3,24.3 39.8,22.2 C38.4,20.1 37.6,16.9 37.6,12.8 L37.6,12.8 Z M42.5,12.8 C42.5,14 42.5,15.1 42.6,16.1 C42.7,17.1 42.9,18 43.1,18.8 C43.4,19.6 43.8,20.2 44.3,20.6 C44.8,21 45.5,21.3 46.3,21.3 C47.1,21.3 47.8,21.1 48.3,20.6 C48.8,20.2 49.2,19.6 49.5,18.8 C49.8,18 50,17.1 50,16.1 C50.1,15.1 50.1,14 50.1,12.8 C50.1,11.6 50.1,10.5 50,9.5 C49.9,8.5 49.7,7.6 49.5,6.8 C49.2,6 48.8,5.4 48.3,5 C47.8,4.6 47.1,4.3 46.3,4.3 C45.5,4.3 44.8,4.5 44.3,5 C43.8,5.4 43.4,6 43.1,6.8 C42.8,7.6 42.6,8.5 42.6,9.5 C42.5,10.5 42.5,11.6 42.5,12.8 L42.5,12.8 Z" id="Shape"></path>
            <path d="M69.9,24.9 C68.8,22.2 67.6,19.5 66.3,16.9 C65,14.2 63.6,11.6 62.1,8.9 L62.1,24.9 L57.8,24.9 L57.8,0.7 L61.7,0.7 C62.4,1.8 63.2,3.1 63.9,4.4 C64.6,5.7 65.3,7.1 66,8.4 C66.7,9.7 67.3,11 67.9,12.3 C68.5,13.5 69,14.6 69.4,15.6 L69.4,0.7 L73.7,0.7 L73.7,24.9 L69.9,24.9 L69.9,24.9 Z" id="Shape"></path>
            <polygon id="Shape" points="94.1 0.7 94.1 4.7 87.7 4.7 87.7 24.9 82.9 24.9 82.9 4.7 76.5 4.7 76.5 0.7"></polygon>
            <polygon id="Shape" points="97.5 24.9 97.5 0.7 112.1 0.7 112.1 4.7 102.3 4.7 102.3 10.1 110.8 10.1 110.8 14.1 102.3 14.1 102.3 20.9 113 20.9 113 24.9 97.5 24.9"></polygon>
            <path d="M128.4,24.9 C127.3,22.2 126.1,19.5 124.8,16.9 C123.5,14.2 122.1,11.6 120.6,8.9 L120.6,24.9 L116.3,24.9 L116.3,0.7 L120.2,0.7 C120.9,1.8 121.7,3.1 122.4,4.4 C123.1,5.7 123.8,7.1 124.5,8.4 C125.2,9.7 125.8,11 126.4,12.3 C127,13.5 127.5,14.6 127.9,15.6 L127.9,0.7 L132.2,0.7 L132.2,24.9 L128.4,24.9 L128.4,24.9 Z" id="Shape"></path>
            <path d="M152.6,12.8 C152.6,15 152.3,16.9 151.8,18.5 C151.2,20.1 150.5,21.4 149.5,22.3 C148.5,23.3 147.3,24 146,24.5 C144.6,25 143.1,25.2 141.5,25.2 C140.6,25.2 139.8,25.2 139,25.1 C138.2,25 137.3,24.9 136.4,24.7 L136.4,1 C137.5,0.8 138.5,0.6 139.5,0.5 C140.5,0.4 141.4,0.4 142.2,0.4 C143.8,0.4 145.2,0.6 146.6,1.1 C147.9,1.6 149,2.3 149.9,3.3 C150.8,4.3 151.5,5.6 152,7.1 C152.3,8.7 152.6,10.6 152.6,12.8 L152.6,12.8 Z M141,21 L141.4,21 L141.8,21 C142.9,21 143.8,20.8 144.6,20.4 C145.3,20 145.9,19.4 146.4,18.7 C146.9,18 147.2,17.1 147.4,16.1 C147.6,15.1 147.7,14 147.7,12.8 C147.7,11.8 147.6,10.7 147.5,9.8 C147.3,8.8 147.1,7.9 146.7,7.2 C146.3,6.4 145.8,5.8 145.1,5.4 C144.4,4.9 143.6,4.7 142.5,4.7 L141.8,4.7 C141.5,4.7 141.3,4.7 141.1,4.8 L141.1,21 L141,21 Z" id="Shape"></path>
        </g>
        <g id="Group" transform="translate(13.200000, 58.300000)" fill="#FFFFFF">
            <path d="M7,0.4 C7.2,1.1 7.5,2 7.9,3.2 C8.3,4.3 8.6,5.5 9,6.8 C9.4,8.1 9.8,9.4 10.2,10.7 C10.6,12 11,13.3 11.4,14.4 C11.8,13.1 12.2,11.8 12.7,10.5 C13.1,9.2 13.6,7.9 14,6.6 C14.4,5.4 14.8,4.2 15.1,3.1 C15.4,2 15.7,1.1 16,0.4 L21.2,0.4 C21.4,3.2 21.7,5.8 21.9,8.5 C22.1,11.1 22.3,13.7 22.5,16.3 C22.7,18.9 22.8,21.5 22.9,24.1 C23,26.7 23.1,29.4 23.2,32.1 L17.4,32.1 L17.7,7.6 L13.8,21 L9.2,21 L5.5,7.6 L5.8,32.1 L0,32.1 C0.1,29.5 0.2,26.8 0.3,24 C0.4,21.2 0.5,18.4 0.7,15.7 C0.8,12.9 1,10.3 1.2,7.7 C1.4,5.1 1.6,2.7 1.8,0.5 L7,0.5 L7,0.4 Z" id="Shape"></path>
            <polygon id="Shape" points="27.1 32 27.1 26.8 34 26.8 34 5.6 27.1 5.6 27.1 0.4 47.2 0.4 47.2 5.6 40.4 5.6 40.4 26.8 47.2 26.8 47.2 32"></polygon>
            <path d="M68,32 C67.4,30.3 66.6,28.3 65.6,26.2 C64.7,24.1 63.7,22 62.7,19.9 C61.7,21.9 60.7,24 59.7,26.2 C58.7,28.4 57.9,30.3 57.1,32 L50.3,32 C50.6,31.1 51.1,30 51.8,28.7 C52.5,27.4 53.2,26 54,24.5 C54.8,23 55.6,21.5 56.5,19.9 C57.4,18.3 58.2,16.8 59.1,15.3 L50.8,0.4 L57.6,0.4 L62.6,10.5 L67.9,0.4 L74.2,0.4 L66.1,15.1 C67,16.6 67.9,18.1 68.8,19.7 C69.7,21.3 70.5,22.9 71.3,24.4 C72.1,25.9 72.7,27.3 73.3,28.6 C73.9,29.9 74.3,31 74.7,31.9 L68,31.9 L68,32 Z" id="Shape"></path>
        </g>
    </g>
</svg>